<svg xmlns="http://www.w3.org/2000/svg" viewBox="0 0 245.99 239.09"><defs><style>.cls-1{fill:#f7b2b0;}.cls-2{fill:#ffffb3;}.cls-3{fill:#dc7b75;}</style></defs><g id="Layer_2" data-name="Layer 2"><g id="svg8"><g id="layer4"><g id="g3630"><g id="g2433"><ellipse id="ellipse9405-5-25" class="cls-1" cx="123" cy="119.54" rx="123" ry="119.54"/><circle id="circle9407-0-5" class="cls-2" cx="123" cy="116.42" r="98.34"/><path id="path9409-2-96" class="cls-3" d="M121.75,180.47c-.22-.1-11.7-11-25.53-24.3-27.4-26.31-26.14-25-29.44-30.08A48.73,48.73,0,0,1,59,106.67a48.61,48.61,0,0,1,0-11.18A34.22,34.22,0,0,1,86.65,67a24.4,24.4,0,0,1,5.7-.36A26.18,26.18,0,0,1,98.2,67c9,1.68,16.89,6.74,23.41,15,.73.92,1.34,1.67,1.36,1.67s.75-.89,1.63-2c6.51-8.09,14.27-13,23.12-14.66a25.2,25.2,0,0,1,5.78-.36,25.3,25.3,0,0,1,5.79.36,34.31,34.31,0,0,1,27.87,30.52,46.7,46.7,0,0,1-.27,9.41,49.59,49.59,0,0,1-7.66,19.15c-3.32,5.08-2.06,3.8-29.51,30.13-13.81,13.26-25.31,24.19-25.56,24.3a4.33,4.33,0,0,1-2.42,0Z"/></g></g></g></g></g></svg>